<svg xmlns="http://www.w3.org/2000/svg" width="512" height="512" viewBox="0 0 512 512" role="img" aria-label="Placeholder LINE chatbot QR code">
  <rect width="512" height="512" fill="#ffffff" />
  <rect x="24" y="24" width="464" height="464" rx="20" fill="none" stroke="#0f172a" stroke-width="8" />

  <rect x="52" y="52" width="120" height="120" fill="#111827" />
  <rect x="68" y="68" width="88" height="88" fill="#ffffff" />
  <rect x="84" y="84" width="56" height="56" fill="#111827" />

  <rect x="340" y="52" width="120" height="120" fill="#111827" />
  <rect x="356" y="68" width="88" height="88" fill="#ffffff" />
  <rect x="372" y="84" width="56" height="56" fill="#111827" />

  <rect x="52" y="340" width="120" height="120" fill="#111827" />
  <rect x="68" y="356" width="88" height="88" fill="#ffffff" />
  <rect x="84" y="372" width="56" height="56" fill="#111827" />

  <g fill="#0f172a">
    <rect x="220" y="220" width="20" height="20" />
    <rect x="250" y="220" width="20" height="20" />
    <rect x="280" y="220" width="20" height="20" />
    <rect x="310" y="220" width="20" height="20" />
    <rect x="220" y="250" width="20" height="20" />
    <rect x="280" y="250" width="20" height="20" />
    <rect x="340" y="250" width="20" height="20" />
    <rect x="220" y="280" width="20" height="20" />
    <rect x="250" y="280" width="20" height="20" />
    <rect x="310" y="280" width="20" height="20" />
    <rect x="340" y="280" width="20" height="20" />
    <rect x="220" y="310" width="20" height="20" />
    <rect x="280" y="310" width="20" height="20" />
    <rect x="340" y="310" width="20" height="20" />
  </g>

  <text x="256" y="470" text-anchor="middle" font-family="Arial, sans-serif" font-size="18" fill="#0f172a">
    Replace with real LINE QR code
  </text>
</svg>
